<svg width="85" height="86" viewBox="0 0 85 86" fill="none" xmlns="http://www.w3.org/2000/svg">
<g id="bi:plus">
<g id="Group">
<g id="Vector">
<path fill-rule="evenodd" clip-rule="evenodd" d="M30.4945 31.3143C30.8461 30.9627 31.323 30.7651 31.8203 30.7651C32.3176 30.7651 32.7945 30.9627 33.1461 31.3143L43.7527 41.9209C44.1044 42.2725 44.3019 42.7495 44.3019 43.2467C44.3019 43.744 44.1044 44.2209 43.7527 44.5726L33.1461 55.1792C32.7945 55.5308 32.3176 55.7283 31.8203 55.7283C31.323 55.7283 30.8461 55.5308 30.4945 55.1792C30.1429 54.8275 29.9453 54.3506 29.9453 53.8533C29.9453 53.3561 30.1429 52.8791 30.4945 52.5275L39.7753 43.2467L30.4945 33.966C30.1429 33.6143 29.9453 33.1374 29.9453 32.6401C29.9453 32.1429 30.1429 31.6659 30.4945 31.3143Z" fill="url(#paint0_linear_112_354)"/>
<path fill-rule="evenodd" clip-rule="evenodd" d="M41.1014 44.5726C40.7498 44.2209 40.5522 43.744 40.5522 43.2467C40.5522 42.7495 40.7498 42.2725 41.1014 41.9209L51.708 31.3143C52.0596 30.9627 52.5366 30.7651 53.0338 30.7651C53.5311 30.7651 54.008 30.9627 54.3597 31.3143C54.7113 31.6659 54.9088 32.1429 54.9088 32.6401C54.9088 33.1374 54.7113 33.6143 54.3597 33.966L45.0789 43.2467L54.3597 52.5275C54.7113 52.8791 54.9088 53.3561 54.9088 53.8533C54.9088 54.3506 54.7113 54.8275 54.3597 55.1792C54.008 55.5308 53.5311 55.7283 53.0338 55.7283C52.5366 55.7283 52.0596 55.5308 51.708 55.1792L41.1014 44.5726Z" fill="url(#paint1_linear_112_354)"/>
</g>
</g>
</g>
<defs>
<linearGradient id="paint0_linear_112_354" x1="24.5478" y1="15.1631" x2="61.3977" y2="23.3212" gradientUnits="userSpaceOnUse">
<stop stop-color="#976464"/>
<stop offset="1" stop-color="#CFA5A5"/>
</linearGradient>
<linearGradient id="paint1_linear_112_354" x1="24.5478" y1="15.1631" x2="61.3977" y2="23.3212" gradientUnits="userSpaceOnUse">
<stop stop-color="#976464"/>
<stop offset="1" stop-color="#CFA5A5"/>
</linearGradient>
</defs>
</svg>
